<?xml version="1.0" encoding="utf-8"?>
<!-- Generator: Adobe Illustrator 16.0.0, SVG Export Plug-In . SVG Version: 6.00 Build 0)  -->
<!DOCTYPE svg PUBLIC "-//W3C//DTD SVG 1.1//EN" "http://www.w3.org/Graphics/SVG/1.1/DTD/svg11.dtd">
<svg version="1.1" xmlns="http://www.w3.org/2000/svg" xmlns:xlink="http://www.w3.org/1999/xlink" x="0px" y="0px" width="230px"
	 height="55px" viewBox="0 0 230 55" enable-background="new 0 0 230 55" xml:space="preserve">
<g id="Layer_2">
	<g>
		<path fill="#FFFFFF" d="M17.333,37.873c1.186,0,2.141,0.378,2.863,1.134c0.724,0.756,1.085,1.745,1.085,2.969
			c0,2.665-1.35,3.998-4.049,3.998h-5.93v4.431H8.757V37.873H17.333z M17.058,43.567c0.53,0,0.947-0.144,1.251-0.433
			c0.304-0.287,0.456-0.681,0.456-1.177c0-1.119-0.574-1.679-1.722-1.679h-5.741v3.288H17.058z"/>
		<path fill="#FFFFFF" d="M34.616,45.056c0,1.604-0.535,2.908-1.605,3.912c-1.234,1.153-2.777,1.73-4.628,1.73
			c-1.861,0-3.409-0.577-4.643-1.73c-1.07-1.004-1.605-2.308-1.605-3.912c0-1.58,0.54-2.879,1.62-3.894
			c1.224-1.153,2.768-1.731,4.628-1.731c1.851,0,3.389,0.578,4.614,1.731C34.076,42.177,34.616,43.476,34.616,45.056z
			 M31.998,45.056c0-0.952-0.331-1.726-0.993-2.323s-1.539-0.896-2.63-0.896c-1.102,0-1.985,0.298-2.652,0.896
			c-0.667,0.598-1,1.371-1,2.323c0,0.977,0.328,1.76,0.985,2.351c0.657,0.591,1.545,0.886,2.667,0.886
			c1.111,0,1.993-0.295,2.645-0.886C31.672,46.815,31.998,46.032,31.998,45.056z"/>
		<path fill="#FFFFFF" d="M48.414,50.404h-2.896l-2.089-3.444h-3.895v3.444h-2.545V39.76h7.477c1.06,0,1.916,0.332,2.567,0.995
			s0.977,1.526,0.977,2.588c0,1.592-0.622,2.678-1.866,3.254L48.414,50.404z M44.234,44.554c0.386,0,0.691-0.114,0.918-0.346
			c0.226-0.23,0.34-0.537,0.34-0.918c0-0.749-0.424-1.124-1.272-1.124h-4.686v2.388H44.234z"/>
		<path fill="#FFFFFF" d="M59.926,42.166h-4.223v8.238h-2.545v-8.238h-4.238V39.76h11.006V42.166z"/>
		<path fill="#FFFFFF" d="M71.163,50.404h-2.629l-1.019-2.197h-5.477l-1.018,2.197h-2.613l4.932-10.645h2.893L71.163,50.404z
			 M66.401,45.801l-1.607-3.505l-1.607,3.505H66.401z"/>
		<path fill="#FFFFFF" d="M81.764,50.404h-9.386V39.76h2.545v8.238h6.841V50.404z"/>
		<path fill="#FFFFFF" d="M95.432,37.873c1.938,0,3.478,0.586,4.621,1.758c1.142,1.171,1.714,2.72,1.714,4.646
			c0,1.847-0.622,3.358-1.866,4.535c-1.118,1.061-2.492,1.592-4.122,1.592h-7.376V37.873H95.432z M95.605,47.998
			c1.186,0,2.13-0.536,2.834-1.609c0.434-0.658,0.651-1.378,0.651-2.163c0-1.143-0.328-2.086-0.983-2.829
			c-0.656-0.745-1.495-1.117-2.517-1.117h-4.643v7.719H95.605z"/>
		<path fill="#FFFFFF" d="M116.156,45.056c0,1.604-0.535,2.908-1.605,3.912c-1.234,1.153-2.776,1.73-4.627,1.73
			c-1.861,0-3.409-0.577-4.643-1.73c-1.07-1.004-1.605-2.308-1.605-3.912c0-1.58,0.54-2.879,1.62-3.894
			c1.225-1.153,2.768-1.731,4.628-1.731c1.851,0,3.389,0.578,4.614,1.731C115.617,42.177,116.156,43.476,116.156,45.056z
			 M113.539,45.056c0-0.952-0.332-1.726-0.993-2.323s-1.538-0.896-2.63-0.896c-1.102,0-1.985,0.298-2.652,0.896
			c-0.667,0.598-1,1.371-1,2.323c0,0.977,0.329,1.76,0.985,2.351c0.657,0.591,1.545,0.886,2.667,0.886
			c1.111,0,1.992-0.295,2.645-0.886S113.539,46.032,113.539,45.056z"/>
		<path fill="#FFFFFF" d="M133.353,41.404c-1.446-0.935-2.979-1.401-4.6-1.401c-2.208,0-3.312,0.438-3.312,1.314
			c0,0.428,0.304,0.728,0.911,0.899c0.386,0.116,0.969,0.19,1.75,0.227c1.166,0.068,1.903,0.12,2.213,0.154
			c1.697,0.186,2.917,0.555,3.659,1.108c0.8,0.577,1.2,1.466,1.2,2.666c0,1.373-0.526,2.438-1.577,3.192
			c-1.051,0.756-2.564,1.134-4.54,1.134c-2.633,0-4.898-0.784-6.798-2.354l1.389-2.043c1.764,1.293,3.605,1.939,5.524,1.939
			c1.031,0,1.846-0.161,2.444-0.485c0.569-0.323,0.853-0.744,0.853-1.264c0-0.495-0.317-0.824-0.953-0.986
			c-0.357-0.093-1.235-0.173-2.633-0.241c-2.103-0.104-3.626-0.434-4.57-0.987c-1.013-0.577-1.52-1.477-1.52-2.7
			c0-1.246,0.507-2.227,1.52-2.942c1.012-0.715,2.453-1.073,4.324-1.073c2.555,0,4.608,0.612,6.161,1.835L133.353,41.404z"/>
		<path fill="#FFFFFF" d="M147.382,50.404h-10.008V39.76h9.66v2.406h-7.115v1.73h4.831v2.405h-4.831v1.696h7.463V50.404z"/>
		<path fill="#FFFFFF" d="M161.121,50.404h-2.896l-2.09-3.444h-3.895v3.444h-2.545V39.76h7.477c1.061,0,1.917,0.332,2.567,0.995
			c0.651,0.663,0.976,1.526,0.976,2.588c0,1.592-0.621,2.678-1.865,3.254L161.121,50.404z M156.941,44.554
			c0.386,0,0.692-0.114,0.918-0.346c0.227-0.23,0.341-0.537,0.341-0.918c0-0.749-0.425-1.124-1.272-1.124h-4.687v2.388H156.941z"/>
		<path fill="#FFFFFF" d="M174.904,39.76l-5.481,10.645h-2.241l-5.482-10.645h2.854l3.74,7.263l3.739-7.263H174.904z"/>
		<path fill="#FFFFFF" d="M178.78,50.404h-2.545V39.76h2.545V50.404z"/>
		<path fill="#FFFFFF" d="M187.834,39.76c1.707,0,3.061,0.503,4.064,1.506c1.002,1.004,1.504,2.343,1.504,4.016
			c0,1.581-0.56,2.862-1.678,3.843c-0.975,0.854-2.17,1.28-3.587,1.28h-6.465V39.76H187.834z M187.979,47.998
			c0.771,0,1.427-0.271,1.968-0.813c0.539-0.542,0.81-1.188,0.81-1.938c0-0.876-0.263-1.609-0.788-2.197
			c-0.525-0.589-1.194-0.883-2.004-0.883h-3.746v5.832H187.979z"/>
		<path fill="#FFFFFF" d="M207.734,45.056c0,1.604-0.535,2.908-1.605,3.912c-1.234,1.153-2.776,1.73-4.628,1.73
			c-1.861,0-3.408-0.577-4.643-1.73c-1.07-1.004-1.605-2.308-1.605-3.912c0-1.58,0.539-2.879,1.62-3.894
			c1.225-1.153,2.767-1.731,4.628-1.731c1.852,0,3.39,0.578,4.613,1.731C207.194,42.177,207.734,43.476,207.734,45.056z
			 M205.117,45.056c0-0.952-0.331-1.726-0.993-2.323c-0.661-0.598-1.539-0.896-2.631-0.896c-1.101,0-1.984,0.298-2.651,0.896
			s-1,1.371-1,2.323c0,0.977,0.328,1.76,0.985,2.351s1.546,0.886,2.666,0.886c1.111,0,1.992-0.295,2.645-0.886
			S205.117,46.032,205.117,45.056z"/>
		<path fill="#FFFFFF" d="M221.532,50.404h-2.896l-2.09-3.444h-3.896v3.444h-2.545V39.76h7.478c1.061,0,1.917,0.332,2.567,0.995
			c0.651,0.663,0.976,1.526,0.976,2.588c0,1.592-0.621,2.678-1.865,3.254L221.532,50.404z M217.353,44.554
			c0.385,0,0.692-0.114,0.918-0.346c0.227-0.23,0.341-0.537,0.341-0.918c0-0.749-0.425-1.124-1.273-1.124h-4.687v2.388H217.353z"/>
	</g>
</g>
<g id="Layer_1">
	<g>
		<g>
			<defs>
				<rect id="SVGID_1_" x="100.583" y="1.584" width="28.833" height="28.833"/>
			</defs>
			<clipPath id="SVGID_2_">
				<use xlink:href="#SVGID_1_"  overflow="visible"/>
			</clipPath>
			<g clip-path="url(#SVGID_2_)">
				<defs>
					<rect id="SVGID_3_" x="100.583" y="1.584" width="28.833" height="28.833"/>
				</defs>
				<clipPath id="SVGID_4_">
					<use xlink:href="#SVGID_3_"  overflow="visible"/>
				</clipPath>
				<path clip-path="url(#SVGID_4_)" fill-rule="evenodd" clip-rule="evenodd" fill="#FFFFFF" d="M127.682,1.894
					c-0.229-0.027-0.458-0.043-0.689-0.043c-6.432,0.003-12.862,0.002-19.293,0.002c-1.583,0-3.166-0.006-4.749,0.004
					c-0.459,0.003-0.914,0.035-1.31,0.343c-0.569,0.443-0.731,1.033-0.73,1.714c0.003,8.059,0.002,16.116,0.002,24.175
					c0,0.044,0.001,0.088,0,0.132c-0.035,0.96,0.694,1.889,1.67,1.9c0.064,0.001,0.137,0,0.21,0h5.089
					c0.246-0.108,0.078-0.334,0.079-0.538c0.008-1.144,0.002-2.287,0.003-3.43c0.001-0.94-0.003-0.927-0.892-0.945
					c-0.714-0.015-1.192-0.47-1.272-1.179c-0.018-0.164-0.012-0.329-0.012-0.495c0-5.024-0.001-10.047,0-15.071
					c0-1.308,0.43-1.734,1.742-1.735c5.023-0.001,10.048-0.001,15.072,0c0.176,0,0.352-0.007,0.527,0.015
					c0.684,0.086,1.108,0.547,1.141,1.235c0.006,0.143,0.004,0.286,0.004,0.429c0,5.046,0,10.092,0,15.138
					c0,0.165,0.005,0.331-0.008,0.494c-0.055,0.675-0.495,1.114-1.168,1.167c-0.143,0.012-0.286,0.006-0.429,0.014
					c-0.398,0.023-0.491,0.1-0.497,0.495c-0.02,1.33-0.012,2.66-0.004,3.991c0.001,0.155,0.013,0.31,0.152,0.416h4.947
					c0.385-0.026,0.696-0.051,1.009-0.242c0.645-0.397,0.907-0.982,0.871-1.721V3.748C129.129,2.744,128.54,1.994,127.682,1.894
					 M125.609,28.857c-0.597-0.007-1.089-0.523-1.063-1.109c0.026-0.584,0.509-1.06,1.094-1.044c0.594,0.014,1.047,0.49,1.04,1.091
					C126.674,28.387,126.194,28.865,125.609,28.857"/>
				<path clip-path="url(#SVGID_4_)" fill-rule="evenodd" clip-rule="evenodd" fill="#FFFFFF" d="M108.736,24.61
					c0.012-2.16,1.723-3.827,3.619-4.122c0.249-0.039,0.502-0.06,0.753-0.061c1.319-0.007,2.638-0.028,3.956,0.002
					c1.854,0.043,3.182,0.933,3.971,2.609c0.231,0.492,0.341,1.023,0.344,1.564c0.009,1.759,0.004,3.517,0.003,5.274
					c0,0.054,0.005,0.02,0.005,0.243h-12.651"/>
				<path clip-path="url(#SVGID_4_)" fill-rule="evenodd" clip-rule="evenodd" fill="#FFFFFF" d="M111.601,16.182
					c0.015-1.825,1.578-3.515,3.734-3.351c1.769,0.134,3.286,1.68,3.151,3.67c-0.124,1.818-1.676,3.332-3.699,3.191
					C112.927,19.563,111.555,17.993,111.601,16.182"/>
			</g>
		</g>
	</g>
</g>
</svg>
