<?xml version="1.0" encoding="utf-8"?>
<!-- Generator: Adobe Illustrator 19.0.0, SVG Export Plug-In . SVG Version: 6.00 Build 0)  -->
<svg version="1.1" id="Camada_1" xmlns="http://www.w3.org/2000/svg" xmlns:xlink="http://www.w3.org/1999/xlink" x="0px" y="0px"
	 viewBox="0 0 230 55" style="enable-background:new 0 0 230 55;" xml:space="preserve">
<style type="text/css">
	.st0{fill:#FFFFFF;}
</style>
<g id="XMLID_20_">
	<path id="XMLID_17_" class="st0" d="M46.7,34.2c1.2,0.1,2.4,0,3.5,0.2c4.3,0.8,7.1,3.7,7.5,7.7c0.1,1.4,0.1,2.8,0.1,4.1
		c-0.1,2.6-0.9,3.2-3.2,3.7c-6.7,1.4-13.4,1-20-0.7c-0.9-0.2-1.2-0.5-1.2-1.3c0.1-2.1-0.1-4.2,0.1-6.2c0.2-3.8,4.1-7.1,8.5-7.3
		c0.8-0.1,1.6-0.1,2.4-0.1C45.7,34.2,45.7,34.2,46.7,34.2z"/>
	<path id="XMLID_16_" class="st0" d="M38.9,33c-5.1,2-7.6,5.3-7.6,10.1c0,0.9-0.4,1.1-1.3,1c-2.8-0.3-5.6-0.7-8.4-1.5
		c-0.5-0.1-1-0.2-0.9-0.9c0.1-2.5-0.4-5.1,0.3-7.6c0.9-3.5,3.7-5.7,7.7-6.3c0.7-0.1,1.3-0.1,2-0.1c3.1-0.1,5.4-0.3,7.1,3.5
		C38.3,32.1,38.3,32.3,38.9,33z"/>
	<path id="XMLID_15_" class="st0" d="M26.2,26.8c-5.1,2-7.7,5.4-7.6,10.3c0,0.9-0.5,0.9-1.4,0.9c-2.9-0.2-6.7-0.1-8.2-2.1
		c-1.4-1.9-0.7-5.1-0.2-7.6c0.7-3.9,4.1-6.4,8.8-6.7c0.5-0.1,1,0,1.5,0c2.8-0.1,3.6,0.3,5.4,3C25.1,25.4,25.5,26,26.2,26.8z"/>
	<path id="XMLID_14_" class="st0" d="M70.1,21.2c1.4,0.1,2.8,0,4.1,0.2c4.1,0.7,7.1,4,7.2,7.7c0.1,1.3-0.1,2.6,0.1,3.9
		c0.4,2.1-0.6,3.2-2.9,3.6c-2,0.4-3.8,0.7-5.8,0.9c-0.9,0.1-1.3-0.1-1.3-1c0.2-4.6-2-7.9-6.7-9.8c-0.9-0.4-0.6-0.7-0.2-1.1
		c0.9-1.1,1-2.4,1.7-3.5c0.7-1.2,1.5-0.9,2.4-1C69.4,21.2,69.3,21.2,70.1,21.2z"/>
	<path id="XMLID_13_" class="st0" d="M52,32.9c1.3-1.3,2.1-2.7,2.4-4.3c0.1-0.7,0.4-1,1.2-0.9c1.9,0.1,3.8-0.1,5.7,0.1
		c4.7,0.5,7.8,3.5,8.2,7.7c0.1,1.9,0,3.8,0.1,5.6c0,0.9-0.4,1.4-1.2,1.6c-1.2,0.3-2.4,0.7-3.5,0.9c-1.5,0.2-3.3,0.8-4.5,0.4
		c-1.4-0.5-0.5-2.3-0.8-3.5C58.7,37.3,56.6,35,52,32.9z"/>
	<path id="XMLID_11_" class="st0" d="M44.4,33.6c-5.6-1.3-6.7-5.5-5.5-8.3c1.1-2.6,4.3-4.4,7.2-4.1c3.2,0.3,5.9,2.5,6.3,5.2
		c0.5,2.8-1.2,5.5-4.1,6.7c-0.5,0.2-1,0.4-1.7,0.5C45.7,33.8,45.4,33.7,44.4,33.6z"/>
	<path id="XMLID_10_" class="st0" d="M33.3,27c-4.3,0-7.3-2.5-7.5-5.8c-0.1-3.4,2.6-6.2,6.4-6.5c3.7-0.3,7.2,2.2,7.7,5.4
		c0.1,0.7-0.1,1.2-0.7,1.5C36.6,23,37.6,27.7,33.3,27z"/>
	<path id="XMLID_9_" class="st0" d="M68.7,20.7c-1.4-0.3-2.5-0.7-2.8-2.2c-0.2-1.3-1.2-2.6-2.5-3.3c-1.4-0.8-1.2-1.7-0.8-2.8
		c1.2-2.6,4.2-4.3,7.2-4.1c3.3,0.3,5.9,2.6,6.3,5.4c0.4,2.8-1.6,5.3-4.6,6.6c-0.5,0.2-1,0.4-1.7,0.4C69.5,20.8,69.5,20.7,68.7,20.7z
		"/>
	<path id="XMLID_8_" class="st0" d="M64.3,20.8c0.1,4.1-4.2,7-8.7,6.2c-1-0.2-1.3-0.7-1.5-1.4c-0.4-1.7-1.4-3-2.9-4.1
		c-0.9-0.7-1-1.2-0.7-2.2c0.9-3,4.2-4.9,7.7-4.5C61.8,15.1,64.3,17.7,64.3,20.8z"/>
	<path id="XMLID_7_" class="st0" d="M20.8,20.8c-3.6,0-6.7-2.4-7-5.6c-0.4-3.1,2-5.9,5.4-6.7c3.5-0.7,7.1,1.2,8.3,4.1
		c0.4,1,0.4,1.8-0.7,2.5c-1.3,0.9-2.3,2.1-2.6,3.5C23.8,20.7,22.5,20.8,20.8,20.8z"/>
	<path id="XMLID_6_" class="st0" d="M58.5,3.5C60.4,3.5,61.8,4,63.1,5c2.1,1.6,2.1,2.1,0.2,3.7c-1.2,0.9-2.2,2-2.5,3.4
		c-0.2,1.1-0.7,1.4-1.9,1.2c-1.5-0.3-3-0.2-4.6,0.2c-0.5,0.1-0.9,0.2-1.4-0.2c-0.4-0.4,0.1-0.7,0.2-1c0.9-1.6,1.1-3.2,0.9-4.9
		c-0.3-2.3,0.3-3.1,3-3.6C57.6,3.5,58.1,3.5,58.5,3.5z"/>
	<path id="XMLID_5_" class="st0" d="M36.3,5.3c-1.2,2.8-0.9,5.4,0.9,7.7c0.4,0.6-0.2,0.9-0.9,0.7c-2-0.7-4-0.8-6-0.3
		c-1,0.3-1-0.4-1.1-0.8c-0.4-1.7-1.6-3-3-4.1C25.5,8,25.3,7.7,25.6,7c1.4-3.2,7-4.6,10.1-2.5C36,4.8,36.5,4.9,36.3,5.3z"/>
	<path id="XMLID_4_" class="st0" d="M46.6,15.4c1.2,0,2.2,0,3.3,0c0,0.6,0,1.3,0,1.7c0,2.6-0.8,2.4-5,2.3c-1.8,0-2.8,0-4.2,0
		c0-0.9,0-1.3,0-2.6c0-0.7,0.1-1.4,0.9-1.4l2.2,0C45.2,15.4,45.4,15.4,46.6,15.4z"/>
	<path id="XMLID_2_" class="st0" d="M44.2,14.8c-5.6-1.3-6.7-5.5-5.5-8.3c1.1-2.6,4.3-4.4,7.2-4.1c3.2,0.3,5.9,2.5,6.3,5.2
		c0.5,2.8-1.2,5.5-4.1,6.7c-0.5,0.2-1,0.4-1.7,0.5C45.5,14.9,45.3,14.9,44.2,14.8z"/>
</g>
<g id="XMLID_3_">
	<path id="XMLID_12_" class="st0" d="M135.9,21.4c-3.6-1.9-7.4-2.9-11.4-2.9c-5.5,0-8.2,0.9-8.2,2.7c0,0.9,0.8,1.5,2.3,1.9
		c1,0.2,2.4,0.4,4.3,0.5c2.9,0.1,4.7,0.3,5.5,0.3c4.2,0.4,7.2,1.1,9,2.3c2,1.2,3,3,3,5.5c0,2.8-1.3,5-3.9,6.6
		c-2.6,1.6-6.3,2.3-11.2,2.3c-6.5,0-12.1-1.6-16.8-4.9l3.4-4.2c4.4,2.7,8.9,4,13.7,4c2.5,0,4.6-0.3,6-1c1.4-0.7,2.1-1.5,2.1-2.6
		c0-1-0.8-1.7-2.4-2c-0.9-0.2-3-0.4-6.5-0.5c-5.2-0.2-9-0.9-11.3-2c-2.5-1.2-3.8-3-3.8-5.6c0-2.6,1.3-4.6,3.8-6.1
		c2.5-1.5,6.1-2.2,10.7-2.2c6.3,0,11.4,1.3,15.2,3.8L135.9,21.4z"/>
	<path id="XMLID_19_" class="st0" d="M176.6,28.7c0,3.4-1.4,6.2-4.1,8.3c-3.1,2.4-7.1,3.6-11.8,3.6c-4.6,0-8.4-1.2-11.5-3.6
		c-2.7-2.1-4-4.8-4-8c0-3.2,1.3-5.9,4-8c3.1-2.4,6.9-3.6,11.4-3.6c5.4,0,9.7,1.5,12.9,4.5l-6.5,2.3c-1.9-1.2-3.9-1.9-6.1-1.9
		c-2.9,0-5.2,0.6-6.9,1.9c-1.7,1.3-2.6,2.8-2.6,4.8c0,1.9,0.9,3.5,2.6,4.8c1.7,1.3,3.9,1.9,6.7,1.9c4.6,0,7.7-1.3,9.3-3.9h-10.5V27
		h17.2V28.7z"/>
	<path id="XMLID_22_" class="st0" d="M204,24.6c-3.4-1.5-6.9-2.3-10.3-2.3c-4.4,0-6.5,0.7-6.5,2.1c0,0.8,0.8,1.3,2.3,1.5
		c2.2,0.2,4.3,0.4,6.5,0.6c4.1,0.4,7.1,1,9,2c2,1,2.9,2.5,2.9,4.4c0,2.4-1.1,4.3-3.4,5.6c-2.3,1.4-5.6,2.1-9.8,2.1
		c-5.7,0-10.9-1.5-15.4-4.5l3.3-3.9c3.3,2.2,7.3,3.3,12.1,3.3c4.3,0,6.5-0.7,6.5-2.1c0-0.7-0.9-1.1-2.6-1.4c-1-0.2-3.5-0.4-7.4-0.7
		c-7-0.5-10.5-2.8-10.5-6.7c0-2.2,1.1-4,3.3-5.3c2.2-1.3,5.3-2,9.2-2c5.8,0,10.4,1.1,13.8,3.4L204,24.6z"/>
</g>
</svg>
