<?xml version="1.0" encoding="utf-8"?>
<!-- Generator: Adobe Illustrator 19.0.0, SVG Export Plug-In . SVG Version: 6.00 Build 0)  -->
<svg version="1.1" id="Camada_1" xmlns="http://www.w3.org/2000/svg" xmlns:xlink="http://www.w3.org/1999/xlink" x="0px" y="0px"
	 viewBox="53 -53 122 122" style="enable-background:new 53 -53 122 122;" xml:space="preserve">
<style type="text/css">
	.st0{fill:#36609B;}
	.st1{fill:#78909C;}
</style>
<g id="XMLID_20_">
	<path id="XMLID_17_" class="st0" d="M115.2,1.3c1.6,0,3.3-0.1,4.8,0.2c6,1.1,9.8,5.1,10.3,10.6c0.1,1.9,0.2,3.8,0.1,5.6
		c-0.1,3.6-1.3,4.4-4.4,5.1c-9.3,2-18.5,1.4-27.6-0.9c-1.3-0.3-1.6-0.7-1.6-1.8c0.1-2.9-0.1-5.8,0.1-8.6c0.3-5.3,5.6-9.8,11.8-10.1
		c1.1-0.1,2.2-0.1,3.3-0.1C114,1.2,113.9,1.3,115.2,1.3z"/>
	<path id="XMLID_16_" class="st0" d="M104.4-0.5c-7,2.7-10.5,7.3-10.5,13.9c0,1.3-0.5,1.5-1.8,1.4c-3.9-0.4-7.8-1-11.6-2.1
		c-0.7-0.2-1.4-0.3-1.3-1.2c0.2-3.5-0.5-7,0.4-10.5c1.3-4.9,5.1-7.9,10.7-8.7c0.9-0.1,1.8-0.2,2.7-0.2c4.3-0.1,7.5-0.4,9.8,4.8
		C103.6-1.7,103.6-1.4,104.4-0.5z"/>
	<path id="XMLID_15_" class="st0" d="M86.9-9.1C79.8-6.4,76.2-1.7,76.4,5.1c0,1.3-0.7,1.3-1.9,1.2c-4-0.3-9.3-0.2-11.3-2.9
		c-1.9-2.6-0.9-7-0.3-10.5c1-5.4,5.6-8.8,12.1-9.2c0.7-0.1,1.4,0,2.1,0c3.9-0.1,5,0.4,7.4,4.1C85.4-11,85.9-10.1,86.9-9.1z"/>
	<path id="XMLID_14_" class="st0" d="M147.5-16.8c1.9,0.1,3.9,0,5.7,0.3c5.7,1,9.8,5.5,10,10.7c0.1,1.8-0.2,3.6,0.1,5.4
		c0.5,2.9-0.8,4.4-4,5c-2.7,0.5-5.3,1-8,1.3c-1.3,0.2-1.8-0.2-1.8-1.4c0.3-6.3-2.8-10.9-9.2-13.5c-1.3-0.5-0.8-0.9-0.3-1.5
		c1.2-1.5,1.4-3.3,2.3-4.9c1-1.7,2.1-1.3,3.3-1.4C146.6-16.8,146.5-16.8,147.5-16.8z"/>
	<path id="XMLID_13_" class="st0" d="M122.6-0.6c1.8-1.8,2.9-3.7,3.3-5.9c0.2-1,0.5-1.4,1.7-1.3c2.6,0.1,5.3-0.1,7.9,0.2
		C142-6.9,146.3-2.8,146.8,3c0.2,2.6,0,5.2,0.1,7.8c0,1.2-0.5,1.9-1.7,2.2c-1.6,0.4-3.3,1-4.9,1.3c-2.1,0.3-4.5,1.1-6.2,0.5
		c-1.9-0.7-0.7-3.2-1.1-4.9C131.8,5.4,128.9,2.3,122.6-0.6z"/>
	<path id="XMLID_11_" class="st0" d="M112,0.4c-7.7-1.8-9.2-7.6-7.6-11.4c1.5-3.6,5.9-6.1,10-5.7c4.4,0.4,8.1,3.5,8.7,7.2
		c0.7,3.9-1.6,7.6-5.6,9.2c-0.7,0.3-1.4,0.6-2.3,0.7C113.8,0.6,113.5,0.6,112,0.4z"/>
	<path id="XMLID_10_" class="st0" d="M96.7-8.8c-5.9,0-10.1-3.5-10.3-8c-0.2-4.7,3.6-8.6,8.8-9c5.1-0.4,10,3.1,10.6,7.4
		c0.1,0.9-0.1,1.6-1,2.1C101.3-14.3,102.7-7.8,96.7-8.8z"/>
	<path id="XMLID_9_" class="st0" d="M145.6-17.5c-2-0.4-3.4-0.9-3.8-3.1c-0.3-1.8-1.6-3.6-3.4-4.6c-1.9-1.1-1.7-2.4-1.1-3.9
		c1.6-3.6,5.8-6,10-5.6c4.5,0.4,8.2,3.6,8.7,7.4c0.5,3.9-2.2,7.3-6.3,9.1c-0.7,0.3-1.4,0.6-2.3,0.6
		C146.7-17.4,146.7-17.5,145.6-17.5z"/>
	<path id="XMLID_8_" class="st0" d="M139.6-17.4c0.1,5.6-5.8,9.7-12,8.5c-1.4-0.3-1.8-1-2.1-2c-0.6-2.3-1.9-4.2-4-5.6
		c-1.3-0.9-1.4-1.7-1-3c1.3-4.1,5.8-6.8,10.7-6.2C136.1-25.2,139.6-21.6,139.6-17.4z"/>
	<path id="XMLID_7_" class="st0" d="M79.5-17.4c-5,0-9.2-3.3-9.7-7.7c-0.5-4.3,2.8-8.2,7.5-9.2c4.8-1,9.8,1.6,11.4,5.7
		c0.5,1.4,0.5,2.5-1,3.5c-1.8,1.2-3.2,2.9-3.6,4.8C83.6-17.5,81.8-17.3,79.5-17.4z"/>
	<path id="XMLID_6_" class="st0" d="M131.6-41.3c2.5,0.1,4.5,0.7,6.3,2.1c2.9,2.2,2.9,2.9,0.3,5.1c-1.6,1.3-3,2.8-3.4,4.7
		c-0.3,1.5-0.9,2-2.6,1.6c-2.1-0.4-4.2-0.3-6.3,0.3c-0.7,0.2-1.3,0.3-1.9-0.3c-0.5-0.6,0.1-1,0.3-1.4c1.2-2.2,1.5-4.4,1.2-6.8
		c-0.4-3.2,0.4-4.3,4.1-5C130.3-41.2,131-41.2,131.6-41.3z"/>
	<path id="XMLID_5_" class="st0" d="M100.9-38.8c-1.6,3.9-1.2,7.4,1.2,10.7c0.5,0.8-0.3,1.3-1.3,0.9c-2.7-1-5.5-1.1-8.3-0.4
		c-1.4,0.4-1.4-0.5-1.5-1.1c-0.6-2.4-2.2-4.2-4.2-5.7c-0.8-0.6-1.1-1.1-0.7-2c2-4.4,9.7-6.4,13.9-3.4
		C100.4-39.5,101.1-39.3,100.9-38.8z"/>
	<path id="XMLID_4_" class="st0" d="M115.1-24.8c1.6,0,3,0,4.5,0c0,0.8,0,1.8,0,2.3c0.1,3.6-1.1,3.3-6.8,3.2c-2.5,0-3.9,0-5.8,0
		c0-1.2,0-1.8,0-3.6c-0.1-1,0.2-1.9,1.2-1.9l3.1-0.1C113.2-24.8,113.5-24.8,115.1-24.8z"/>
	<path id="XMLID_1_" class="st0" d="M111.8-25.6c-7.7-1.8-9.2-7.6-7.6-11.4c1.5-3.6,5.9-6.1,10-5.7c4.4,0.4,8.1,3.5,8.7,7.2
		c0.7,3.9-1.6,7.6-5.6,9.2c-0.7,0.3-1.4,0.6-2.3,0.7C113.6-25.4,113.3-25.5,111.8-25.6z"/>
</g>
<g>
	<path class="st1" d="M101.3,44.1c-2.1-1.1-4.3-1.7-6.7-1.7c-3.2,0-4.8,0.5-4.8,1.6c0,0.5,0.4,0.9,1.3,1.1c0.6,0.1,1.4,0.2,2.5,0.3
		c1.7,0.1,2.8,0.1,3.2,0.2c2.5,0.2,4.2,0.7,5.3,1.3c1.2,0.7,1.7,1.8,1.7,3.2c0,1.7-0.8,3-2.3,3.9s-3.7,1.4-6.6,1.4
		c-3.8,0-7.1-1-9.9-2.9l2-2.5c2.6,1.6,5.2,2.4,8,2.4c1.5,0,2.7-0.2,3.5-0.6c0.8-0.4,1.2-0.9,1.2-1.5s-0.5-1-1.4-1.2
		c-0.5-0.1-1.8-0.2-3.8-0.3c-3.1-0.1-5.3-0.5-6.6-1.2c-1.5-0.7-2.2-1.8-2.2-3.3c0-1.5,0.7-2.7,2.2-3.6c1.5-0.9,3.6-1.3,6.3-1.3
		c3.7,0,6.7,0.7,8.9,2.2L101.3,44.1z"/>
	<path class="st1" d="M125.2,48.4c0,2-0.8,3.6-2.4,4.9c-1.8,1.4-4.1,2.1-6.9,2.1c-2.7,0-4.9-0.7-6.7-2.1c-1.6-1.2-2.4-2.8-2.4-4.7
		c0-1.9,0.8-3.5,2.4-4.7c1.8-1.4,4-2.1,6.7-2.1c3.2,0,5.7,0.9,7.6,2.6l-3.8,1.4c-1.1-0.7-2.3-1.1-3.6-1.1c-1.7,0-3,0.4-4.1,1.1
		c-1,0.7-1.5,1.7-1.5,2.8s0.5,2.1,1.5,2.8c1,0.7,2.3,1.1,3.9,1.1c2.7,0,4.5-0.8,5.5-2.3h-6.2v-2.8h10.1v1H125.2z"/>
	<path class="st1" d="M141.3,46c-2-0.9-4-1.3-6-1.3c-2.6,0-3.8,0.4-3.8,1.2c0,0.5,0.4,0.8,1.3,0.9c1.3,0.1,2.6,0.2,3.8,0.3
		c2.4,0.2,4.2,0.6,5.3,1.2s1.7,1.5,1.7,2.6c0,1.4-0.7,2.5-2,3.3c-1.4,0.8-3.3,1.2-5.8,1.2c-3.4,0-6.4-0.9-9.1-2.6l2-2.3
		c1.9,1.3,4.3,1.9,7.1,1.9c2.5,0,3.8-0.4,3.8-1.2c0-0.4-0.5-0.7-1.5-0.8c-0.6-0.1-2-0.2-4.4-0.4c-4.1-0.3-6.2-1.6-6.2-3.9
		c0-1.3,0.6-2.4,1.9-3.1c1.3-0.8,3.1-1.2,5.4-1.2c3.4,0,6.1,0.7,8.1,2L141.3,46z"/>
</g>
</svg>
